<svg width="135" height="56" viewBox="0 0 135 56" fill="none" xmlns="http://www.w3.org/2000/svg">
<rect x="1.6032" width="31.3237" height="31.3237" rx="1.86667" transform="matrix(0.715712 -0.698395 0.715712 0.698395 12.8711 29.0251)" stroke="white" stroke-width="2.24"/>
<rect width="33.5637" height="33.5637" rx="2.98667" transform="matrix(0.715712 -0.698395 0.715712 0.698395 0 27.9054)" fill="white"/>
<rect width="33.5637" height="33.5637" rx="2.98667" transform="matrix(0.715712 -0.698395 0.715712 0.698395 0 27.9054)" stroke="white"/>
<path d="M78.7358 30.0137C78.7358 30.1543 78.6948 30.2539 78.6128 30.3125C78.5308 30.3711 78.437 30.418 78.3315 30.4531C78.2261 30.4766 78.1089 30.4941 77.98 30.5059C77.8628 30.5059 77.7632 30.5234 77.6812 30.5586C77.6929 30.5586 77.6167 30.6113 77.4526 30.7168C77.2886 30.8223 77.1011 30.8984 76.8901 30.9453C76.8081 30.9688 76.7319 30.9805 76.6616 30.9805C76.603 30.9805 76.5503 30.998 76.5034 31.0332C76.4565 31.0684 76.4214 31.1328 76.3979 31.2266C76.3745 31.3203 76.3628 31.4727 76.3628 31.6836V31.9824C76.3276 32.3223 76.2749 32.7031 76.2046 33.125C76.1343 33.5352 76.064 33.9629 75.9937 34.4082C75.9351 34.8535 75.8765 35.2988 75.8179 35.7441C75.7593 36.1777 75.7241 36.5879 75.7124 36.9746V37.2559C75.7124 37.3379 75.7007 37.4082 75.6772 37.4668C75.6655 37.5137 75.6597 37.5547 75.6597 37.5898C75.6597 37.6367 75.6655 37.6895 75.6772 37.748C75.689 37.7949 75.7007 37.8887 75.7124 38.0293C75.7124 38.0879 75.689 38.1289 75.6421 38.1523C75.5952 38.1758 75.5718 38.2227 75.5718 38.293C75.5718 38.3281 75.5894 38.3633 75.6245 38.3984C75.6597 38.4219 75.689 38.4336 75.7124 38.4336C75.689 38.5977 75.6421 38.7734 75.5718 38.9609C75.5015 39.1367 75.4546 39.3066 75.4312 39.4707C75.396 39.6699 75.3784 39.8691 75.3784 40.0684C75.3784 40.2559 75.355 40.4492 75.3081 40.6484C75.2144 41.0586 75.103 41.4805 74.9741 41.9141C74.8569 42.3359 74.7515 42.793 74.6577 43.2852C74.6343 43.3438 74.5815 43.4023 74.4995 43.4609C74.4175 43.5078 74.3765 43.5605 74.3765 43.6191C74.3765 43.6426 74.3765 43.666 74.3765 43.6895C74.3882 43.7129 74.394 43.7363 74.394 43.7598C74.394 43.8184 74.3823 43.8594 74.3589 43.8828C74.3472 43.8945 74.3296 43.9062 74.3062 43.918C74.2944 43.9297 74.2769 43.9473 74.2534 43.9707C74.2417 43.9824 74.2358 44.0176 74.2358 44.0762C74.2358 44.1699 74.2417 44.2637 74.2534 44.3574C74.2769 44.4512 74.2886 44.5449 74.2886 44.6387C74.2886 44.7324 74.271 44.8027 74.2358 44.8496C74.2007 44.8965 74.1538 44.9434 74.0952 44.9902C74.0483 45.0254 73.9897 45.0723 73.9194 45.1309C73.8608 45.1895 73.8022 45.2715 73.7437 45.377C73.6733 45.4941 73.6206 45.6172 73.5854 45.7461C73.5503 45.875 73.5093 45.9688 73.4624 46.0273C73.3452 46.1797 73.1987 46.2969 73.0229 46.3789C72.8472 46.4609 72.689 46.5664 72.5483 46.6953C72.4663 46.7773 72.4194 46.8711 72.4077 46.9766C72.396 47.0703 72.355 47.1523 72.2847 47.2227C72.2144 47.293 72.1265 47.3398 72.021 47.3633C71.9272 47.375 71.8452 47.416 71.7749 47.4863C71.6343 47.6035 71.5054 47.7324 71.3882 47.873C71.271 48.0137 71.1362 48.1484 70.9839 48.2773C70.9253 48.3242 70.8374 48.3652 70.7202 48.4004C70.603 48.4238 70.5151 48.4648 70.4565 48.5234C70.3979 48.582 70.3452 48.6641 70.2983 48.7695C70.2515 48.875 70.1987 48.9277 70.1401 48.9277C70.1167 48.9277 70.0874 48.9277 70.0522 48.9277C70.0171 48.916 69.9878 48.9102 69.9644 48.9102H69.9292C69.7534 49.1211 69.4956 49.3262 69.1558 49.5254C68.8276 49.7246 68.4702 49.8945 68.0835 50.0352C67.6968 50.1875 67.3101 50.3047 66.9233 50.3867C66.5483 50.4805 66.2319 50.5273 65.9741 50.5273C65.7046 50.5273 65.5112 50.4629 65.394 50.334C65.2769 50.2168 65.1714 50.1406 65.0776 50.1055C64.937 50.0469 64.7964 50.0234 64.6558 50.0352C64.5269 50.0586 64.4038 50.0352 64.2866 49.9648C64.2163 49.9297 64.1577 49.8711 64.1108 49.7891C64.064 49.707 63.9937 49.6367 63.8999 49.5781C63.6304 49.4141 63.355 49.2148 63.0737 48.9805C62.8042 48.7344 62.5522 48.4531 62.3179 48.1367C62.2241 48.0078 62.1597 47.8438 62.1245 47.6445C62.0894 47.4336 62.0249 47.2461 61.9312 47.082C61.8608 46.9648 61.7495 46.8535 61.5972 46.748C61.4448 46.6426 61.3335 46.4961 61.2632 46.3086C61.1694 46.0742 61.0991 45.8164 61.0522 45.5352C61.0171 45.2539 60.9995 45.0254 60.9995 44.8496C60.9995 44.7207 61.0229 44.5859 61.0698 44.4453C61.1167 44.293 61.1401 44.1641 61.1401 44.0586C61.1401 43.918 61.1167 43.7715 61.0698 43.6191C61.0347 43.4551 61.0171 43.2969 61.0171 43.1445C61.0288 42.4531 61.0933 41.668 61.2104 40.7891C61.3276 39.8984 61.4507 38.9609 61.5796 37.9766C61.7202 36.9922 61.8491 35.9785 61.9663 34.9355C62.0952 33.8926 62.1714 32.8672 62.1948 31.8594C62.1479 31.8125 62.0835 31.7891 62.0015 31.7891C61.9194 31.7891 61.8198 31.8125 61.7026 31.8594C61.5854 31.9062 61.4624 31.959 61.3335 32.0176C61.2163 32.0762 61.0933 32.1289 60.9644 32.1758C60.8354 32.2227 60.7183 32.2461 60.6128 32.2461C60.6128 32.1758 60.5601 32.1113 60.4546 32.0527C60.3608 31.9941 60.314 31.918 60.314 31.8242C60.314 31.6484 60.3726 31.5195 60.4897 31.4375C60.6187 31.3555 60.7769 31.2969 60.9644 31.2617C61.1519 31.2148 61.3511 31.1855 61.562 31.1738C61.7847 31.1504 61.9956 31.1152 62.1948 31.0684C62.2417 31.0566 62.2651 31.0332 62.2651 30.998C62.2769 30.9629 62.2944 30.9453 62.3179 30.9453C62.4585 30.9102 62.5698 30.8926 62.6519 30.8926C62.7456 30.8809 62.8335 30.8633 62.9155 30.8398C62.9976 30.8164 63.0913 30.7754 63.1968 30.7168C63.3022 30.6582 63.4429 30.5586 63.6187 30.418C63.7241 30.3359 63.8296 30.248 63.9351 30.1543C64.0405 30.0605 64.1343 30.0137 64.2163 30.0137C64.3335 30.0137 64.4448 30.0605 64.5503 30.1543C64.6558 30.2363 64.7964 30.2773 64.9722 30.2773C65.0659 30.2773 65.189 30.2363 65.3413 30.1543C65.5054 30.0605 65.6929 30.0137 65.9038 30.0137C65.9976 30.0137 66.0913 30.0195 66.1851 30.0312C66.2788 30.0312 66.3726 30.0312 66.4663 30.0312C66.5483 30.0312 66.6128 30.0195 66.6597 29.9961C66.7065 29.9609 66.7417 29.9258 66.7651 29.8906C66.8003 29.8555 66.8354 29.8262 66.8706 29.8027C66.9058 29.7676 66.9644 29.75 67.0464 29.75C67.1284 29.75 67.2222 29.7617 67.3276 29.7852C67.4331 29.8086 67.5093 29.8438 67.5562 29.8906C67.4976 30.0781 67.4272 30.2188 67.3452 30.3125C67.2632 30.4062 67.1636 30.4766 67.0464 30.5234C66.9292 30.5703 66.7944 30.5996 66.6421 30.6113C66.4897 30.623 66.3198 30.6465 66.1323 30.6816C66.062 30.6934 65.9683 30.7109 65.8511 30.7344C65.7339 30.7461 65.646 30.7695 65.5874 30.8047C65.4937 30.8984 65.3999 31.0801 65.3062 31.3496C65.2241 31.6191 65.1421 31.9355 65.0601 32.2988C64.9897 32.6621 64.9077 33.0488 64.814 33.459C64.7319 33.8574 64.644 34.2441 64.5503 34.6191C64.5386 34.666 64.5269 34.7188 64.5151 34.7773C64.5151 34.8242 64.5151 34.8828 64.5151 34.9531C64.5151 35.0469 64.5151 35.1465 64.5151 35.252C64.5269 35.3457 64.5327 35.457 64.5327 35.5859C64.5327 35.75 64.5269 35.9199 64.5151 36.0957C64.5034 36.2598 64.4683 36.4238 64.4097 36.5879C64.3862 36.7285 64.3511 36.957 64.3042 37.2734C64.269 37.5898 64.2222 37.9648 64.1636 38.3984C64.1167 38.8203 64.0698 39.2949 64.0229 39.8223C63.9761 40.3379 63.9351 40.877 63.8999 41.4395C63.8882 41.5684 63.8589 41.6855 63.812 41.791C63.7769 41.8965 63.7593 41.9961 63.7593 42.0898C63.7593 42.1367 63.7827 42.1719 63.8296 42.1953L63.8999 42.2305C63.8647 42.5938 63.8062 42.9219 63.7241 43.2148C63.6538 43.4961 63.6187 43.7773 63.6187 44.0586C63.6538 44.5508 63.7651 45.0137 63.9526 45.4473C64.1401 45.8809 64.3394 46.25 64.5503 46.5547C64.5854 46.6016 64.6558 46.7012 64.7612 46.8535C64.8667 46.9941 64.9839 47.1406 65.1128 47.293C65.2417 47.4453 65.3647 47.5859 65.4819 47.7148C65.6108 47.832 65.7104 47.8906 65.7808 47.8906C65.8042 47.8906 65.8335 47.8906 65.8687 47.8906C65.9038 47.8789 65.9331 47.873 65.9565 47.873H65.9917C66.1089 48.0137 66.2729 48.125 66.4839 48.207C66.6948 48.2891 66.9233 48.3945 67.1694 48.5234C67.2515 48.5703 67.3218 48.6113 67.3804 48.6465C67.4507 48.6816 67.5151 48.7168 67.5737 48.752C67.644 48.7754 67.7144 48.7988 67.7847 48.8223C67.8667 48.834 67.9663 48.8398 68.0835 48.8398C68.3413 48.8398 68.5405 48.8223 68.6812 48.7871C68.8335 48.7402 68.9683 48.6816 69.0854 48.6113C69.2026 48.5293 69.3198 48.4414 69.437 48.3477C69.5659 48.2422 69.73 48.125 69.9292 47.9961C70.0347 47.9258 70.1636 47.832 70.3159 47.7148C70.48 47.5859 70.644 47.4512 70.8081 47.3105C70.9839 47.1582 71.1421 47.0059 71.2827 46.8535C71.4351 46.7012 71.5522 46.5605 71.6343 46.4316C71.6812 46.373 71.7222 46.2617 71.7573 46.0977C71.7925 45.9219 71.8394 45.7695 71.8979 45.6406C71.9683 45.5117 72.0269 45.4062 72.0737 45.3242C72.1206 45.2305 72.1616 45.1367 72.1968 45.043C72.2437 44.9492 72.2847 44.8379 72.3198 44.709C72.355 44.5801 72.3901 44.4102 72.4253 44.1992C72.4604 44.0469 72.4897 43.8711 72.5132 43.6719C72.5483 43.4609 72.5835 43.25 72.6187 43.0391C72.6538 42.8281 72.6948 42.6289 72.7417 42.4414C72.8003 42.2422 72.8706 42.0723 72.9526 41.9316C72.9526 41.8262 72.9292 41.7617 72.8823 41.7383C72.8472 41.7031 72.8296 41.627 72.8296 41.5098C72.8296 41.3926 72.8413 41.2168 72.8647 40.9824C72.8882 40.7363 72.9175 40.543 72.9526 40.4023C72.9878 40.2852 73.0229 40.1914 73.0581 40.1211C73.105 40.0391 73.1519 39.9629 73.1987 39.8926C73.2456 39.8223 73.2808 39.7461 73.3042 39.6641C73.3394 39.5703 73.3569 39.4414 73.3569 39.2773C73.3569 39.1133 73.3452 38.9961 73.3218 38.9258C73.3101 38.8438 73.2925 38.791 73.269 38.7676C73.2573 38.7324 73.2456 38.7031 73.2339 38.6797C73.2222 38.6562 73.2163 38.6152 73.2163 38.5566C73.3101 38.1699 73.4214 37.7305 73.5503 37.2383C73.6909 36.7461 73.7964 36.2246 73.8667 35.6738V35.5508C73.8667 35.457 73.8608 35.3516 73.8491 35.2344C73.8491 35.1055 73.8491 34.9766 73.8491 34.8477C73.8491 34.6836 73.8608 34.5137 73.8843 34.3379C73.9194 34.1504 73.9546 33.9688 73.9897 33.793C74.0249 33.6172 74.0542 33.4531 74.0776 33.3008C74.1128 33.1367 74.1304 32.9961 74.1304 32.8789C74.1304 32.75 74.1069 32.6328 74.0601 32.5273C74.0249 32.4219 74.0073 32.3164 74.0073 32.2109C74.0073 32.0469 74.0308 31.9355 74.0776 31.877C74.1362 31.8066 74.1655 31.7422 74.1655 31.6836C74.1655 31.625 74.1362 31.584 74.0776 31.5605C74.0308 31.5371 73.978 31.5254 73.9194 31.5254C73.7905 31.5254 73.6265 31.5664 73.4272 31.6484C73.2397 31.7305 73.0464 31.7715 72.8472 31.7715C72.7417 31.7715 72.6421 31.7539 72.5483 31.7188C72.4546 31.6719 72.3667 31.5898 72.2847 31.4727C72.3315 31.3086 72.4663 31.1738 72.689 31.0684C72.9116 30.9629 73.1577 30.875 73.4272 30.8047C73.7085 30.7227 73.978 30.6582 74.2358 30.6113C74.5054 30.5527 74.6929 30.4883 74.7983 30.418C74.8569 30.3711 74.8862 30.3066 74.8862 30.2246C74.8979 30.1309 74.9858 30.084 75.1499 30.084C75.2671 30.084 75.3901 30.1191 75.519 30.1895C75.6597 30.248 75.8296 30.2773 76.0288 30.2773C76.3101 30.2773 76.5913 30.2305 76.8726 30.1367C77.1655 30.0312 77.4761 29.9492 77.8042 29.8906C77.8394 29.8906 77.8921 29.8672 77.9624 29.8203C78.0327 29.7734 78.144 29.75 78.2964 29.75C78.3901 29.75 78.4839 29.7676 78.5776 29.8027C78.6714 29.8379 78.7241 29.9082 78.7358 30.0137ZM88.5444 39.3477C88.521 39.6172 88.4976 39.875 88.4741 40.1211C88.4624 40.3555 88.4448 40.5898 88.4214 40.8242C88.3979 41.0469 88.3628 41.2754 88.3159 41.5098C88.2808 41.7324 88.2222 41.9727 88.1401 42.2305C88.0112 42.3242 87.9526 42.4355 87.9644 42.5645C87.9761 42.6934 87.9468 42.8398 87.8765 43.0039C87.8296 43.0977 87.7944 43.1738 87.771 43.2324C87.7593 43.291 87.7476 43.3496 87.7358 43.4082C87.7241 43.4551 87.7065 43.5078 87.6831 43.5664C87.6714 43.625 87.6479 43.7012 87.6128 43.7949C87.5542 43.9121 87.4722 44.0234 87.3667 44.1289C87.2729 44.2227 87.1792 44.334 87.0854 44.4629C86.8511 44.8262 86.5874 45.248 86.2944 45.7285C86.0132 46.209 85.6675 46.707 85.2573 47.2227C85.2339 47.2461 85.187 47.2695 85.1167 47.293C85.0464 47.3047 85.0054 47.3223 84.9937 47.3457C84.9468 47.4277 84.9116 47.5098 84.8882 47.5918C84.8765 47.6621 84.8237 47.75 84.73 47.8555C84.6831 47.9141 84.6128 47.9609 84.519 47.9961C84.437 48.0312 84.3784 48.0781 84.3433 48.1367C84.2964 48.1953 84.2729 48.2598 84.2729 48.3301C84.2729 48.4004 84.2495 48.4648 84.2026 48.5234C84.0854 48.6523 83.98 48.7637 83.8862 48.8574C83.8042 48.9395 83.6987 49.0273 83.5698 49.1211C83.4526 49.2031 83.3003 49.2969 83.1128 49.4023C82.9253 49.5078 82.6792 49.6484 82.3745 49.8242C82.3159 49.8594 82.2456 49.9121 82.1636 49.9824C82.0815 50.041 82.0171 50.082 81.9702 50.1055C81.853 50.1523 81.6538 50.1934 81.3726 50.2285C81.0913 50.2637 80.8569 50.3105 80.6694 50.3691C80.5054 50.416 80.3296 50.4629 80.1421 50.5098C79.9546 50.5566 79.7671 50.5801 79.5796 50.5801C79.3569 50.5801 79.1753 50.5391 79.0347 50.457C78.894 50.375 78.8237 50.2109 78.8237 49.9648C78.8237 49.8945 78.8413 49.8359 78.8765 49.7891C78.9233 49.7422 78.9468 49.7129 78.9468 49.7012C78.9468 49.5723 78.9233 49.4434 78.8765 49.3145C78.8413 49.1738 78.8237 49.0391 78.8237 48.9102C78.8237 48.5938 78.8706 48.2363 78.9644 47.8379C79.0698 47.4395 79.1519 46.9707 79.2104 46.4316C79.2222 46.3379 79.2456 46.2793 79.2808 46.2559C79.3276 46.2207 79.3511 46.1914 79.3511 46.168C79.4331 45.6758 79.48 45.1836 79.4917 44.6914C79.5151 44.1992 79.5562 43.7305 79.6147 43.2852C79.6499 42.9805 79.7026 42.7051 79.7729 42.459C79.8433 42.2129 79.8784 41.9492 79.8784 41.668C79.8784 41.5391 79.8726 41.4043 79.8608 41.2637C79.8608 41.123 79.8608 40.9941 79.8608 40.877C79.8608 40.748 79.8726 40.6309 79.896 40.5254C79.9312 40.4082 79.9663 40.291 80.0015 40.1738C80.0483 40.0566 80.0835 39.9336 80.1069 39.8047C80.1421 39.6758 80.1597 39.5234 80.1597 39.3477C80.1597 39.1953 80.1479 39.0488 80.1245 38.9082C80.1128 38.7676 80.1069 38.6328 80.1069 38.5039C80.1069 38.2695 80.1655 38.0293 80.2827 37.7832C80.4116 37.5371 80.4937 37.3086 80.5288 37.0977C80.5874 36.7461 80.6167 36.3828 80.6167 36.0078C80.6167 35.6328 80.6343 35.252 80.6694 34.8652C80.728 34.2207 80.7983 33.5586 80.8804 32.8789C80.9741 32.1992 81.0737 31.5078 81.1792 30.8047C81.2495 30.3477 81.3374 29.8613 81.4429 29.3457C81.5601 28.8184 81.6187 28.2324 81.6187 27.5879C81.6187 27.4707 81.6128 27.3418 81.6011 27.2012C81.5894 27.0605 81.5542 26.9902 81.4956 26.9902C81.2612 26.9902 81.0444 27.0723 80.8452 27.2363C80.6577 27.4004 80.4819 27.582 80.3179 27.7812C80.1538 27.9688 80.0015 28.1445 79.8608 28.3086C79.7319 28.4609 79.6089 28.5371 79.4917 28.5371C79.4331 28.5371 79.3804 28.5078 79.3335 28.4492C79.2983 28.3906 79.2808 28.332 79.2808 28.2734C79.2808 28.1211 79.3569 27.9629 79.5093 27.7988C79.6733 27.6348 79.7964 27.4531 79.8784 27.2539C79.9487 27.0664 80.019 26.9375 80.0894 26.8672C80.1597 26.7969 80.2358 26.75 80.3179 26.7266C80.3999 26.7031 80.4878 26.6797 80.5815 26.6562C80.6753 26.6328 80.7866 26.5742 80.9155 26.4805C81.103 26.3398 81.2729 26.1758 81.4253 25.9883C81.5894 25.7891 81.7417 25.5898 81.8823 25.3906C82.0229 25.1797 82.1636 24.9863 82.3042 24.8105C82.4448 24.623 82.5972 24.4766 82.7612 24.3711C82.8433 24.3125 82.9253 24.2891 83.0073 24.3008C83.1011 24.3125 83.1948 24.2891 83.2886 24.2305C83.3472 24.207 83.4058 24.1719 83.4644 24.125C83.5347 24.0664 83.605 24.0371 83.6753 24.0371C83.7456 24.0371 83.8159 24.084 83.8862 24.1777C83.9683 24.2598 84.0093 24.3945 84.0093 24.582C84.0093 24.8164 83.9565 25.0684 83.8511 25.3379C83.7573 25.6074 83.6987 25.8125 83.6753 25.9531C83.6401 26.2227 83.6226 26.5098 83.6226 26.8145C83.6226 27.1074 83.5991 27.4297 83.5522 27.7812C83.5288 27.875 83.4995 27.9453 83.4644 27.9922C83.4409 28.0273 83.4292 28.0566 83.4292 28.0801C83.4292 28.209 83.4468 28.3086 83.4819 28.3789C83.5288 28.4375 83.5522 28.502 83.5522 28.5723C83.5288 28.6895 83.5054 28.748 83.4819 28.748C83.4702 28.748 83.4526 28.7773 83.4292 28.8359C83.3589 28.9648 83.3296 29.1055 83.3413 29.2578C83.353 29.4102 83.3354 29.6211 83.2886 29.8906C83.2183 30.3242 83.1479 30.7871 83.0776 31.2793C83.0073 31.7598 82.9429 32.2988 82.8843 32.8965C82.8491 33.2246 82.7964 33.5586 82.7261 33.8984C82.6558 34.2383 82.6206 34.5723 82.6206 34.9004C82.6206 35.0293 82.6206 35.1582 82.6206 35.2871C82.6323 35.4043 82.6382 35.5273 82.6382 35.6562C82.6382 35.9258 82.6089 36.2129 82.5503 36.5176C82.5034 36.8105 82.4448 37.1152 82.3745 37.4316C82.3159 37.748 82.2573 38.0762 82.1987 38.416C82.1401 38.7559 82.105 39.1074 82.0933 39.4707C82.2222 39.4473 82.3335 39.4004 82.4272 39.3301C82.5327 39.248 82.6265 39.1602 82.7085 39.0664C82.7905 38.9609 82.8667 38.8555 82.937 38.75C83.0073 38.6328 83.0776 38.5215 83.1479 38.416C83.1597 38.4043 83.2065 38.3574 83.2886 38.2754C83.3706 38.1816 83.4585 38.082 83.5522 37.9766C83.646 37.8594 83.7339 37.748 83.8159 37.6426C83.8979 37.5254 83.939 37.4375 83.939 37.3789C83.939 37.332 83.9741 37.2559 84.0444 37.1504C84.1265 37.0449 84.2202 36.9336 84.3257 36.8164C84.4312 36.6875 84.5308 36.5645 84.6245 36.4473C84.73 36.3301 84.8062 36.2422 84.853 36.1836C84.9233 36.1016 85.0112 36.0195 85.1167 35.9375C85.2339 35.8438 85.3276 35.75 85.3979 35.6562C85.4683 35.5391 85.5093 35.416 85.521 35.2871C85.5327 35.1582 85.5737 35.0645 85.644 35.0059C85.6909 34.959 85.8081 34.8828 85.9956 34.7773C86.1948 34.6602 86.3999 34.5488 86.6108 34.4434C86.8218 34.3262 87.021 34.2266 87.2085 34.1445C87.396 34.0625 87.5073 34.0215 87.5425 34.0215C87.6245 34.0215 87.6831 34.0508 87.7183 34.1094C87.7651 34.1562 87.7944 34.2266 87.8062 34.3203C87.8296 34.4023 87.853 34.502 87.8765 34.6191C87.8999 34.7363 87.9409 34.8652 87.9995 35.0059C88.0581 35.1348 88.1343 35.2637 88.228 35.3926C88.3218 35.5098 88.3804 35.5977 88.4038 35.6562C88.439 35.8438 88.4683 36.0547 88.4917 36.2891C88.5269 36.5234 88.5503 36.7578 88.562 36.9922C88.5737 37.2266 88.5796 37.4492 88.5796 37.6602C88.5913 37.8711 88.5972 38.0469 88.5972 38.1875C88.5972 38.3633 88.5913 38.5449 88.5796 38.7324C88.5796 38.9082 88.5679 39.1133 88.5444 39.3477ZM86.1714 42.7402C86.2183 42.4238 86.2534 41.9844 86.2769 41.4219C86.3003 40.8594 86.312 40.2852 86.312 39.6992C86.312 39.125 86.2944 38.6387 86.2593 38.2402C86.2358 37.8301 86.2007 37.4961 86.1538 37.2383C86.1069 36.9805 86.0601 36.7988 86.0132 36.6934C85.978 36.5762 85.9429 36.5176 85.9077 36.5176C85.896 36.5176 85.8784 36.5234 85.855 36.5352C85.8433 36.5352 85.8257 36.5352 85.8022 36.5352C85.7554 36.5352 85.7026 36.5059 85.644 36.4473V36.5879C85.5854 36.5879 85.5269 36.6172 85.4683 36.6758C85.4097 36.7344 85.3569 36.8047 85.3101 36.8867C85.2749 36.957 85.2397 37.0273 85.2046 37.0977C85.1694 37.168 85.1401 37.2148 85.1167 37.2383C85.0698 37.3086 85.0054 37.3789 84.9233 37.4492C84.853 37.5195 84.7827 37.584 84.7124 37.6426C84.6421 37.7012 84.5776 37.7598 84.519 37.8184C84.4722 37.8652 84.4487 37.9121 84.4487 37.959C84.4487 37.9824 84.4487 38.0117 84.4487 38.0469C84.4604 38.082 84.4663 38.1113 84.4663 38.1348C84.4663 38.1816 84.4253 38.2109 84.3433 38.2227C84.2729 38.2227 84.2261 38.2461 84.2026 38.293C84.1089 38.4336 84.0269 38.6387 83.9565 38.9082C83.8979 39.166 83.8042 39.3945 83.6753 39.5938C83.6636 39.6172 83.6226 39.6406 83.5522 39.6641C83.4819 39.6875 83.4409 39.7109 83.4292 39.7344C83.3237 39.8633 83.2476 40.0332 83.2007 40.2441C83.1655 40.4434 83.1069 40.6191 83.0249 40.7715C82.8257 41.1465 82.603 41.5449 82.3569 41.9668C82.1108 42.3887 81.9409 42.7812 81.8472 43.1445C81.7417 43.3555 81.6655 43.5605 81.6187 43.7598C81.5835 43.959 81.5601 44.1699 81.5483 44.3926C81.5366 44.6152 81.5249 44.8496 81.5132 45.0957C81.5132 45.3301 81.4956 45.5938 81.4604 45.8867C81.4136 46.2383 81.3667 46.5605 81.3198 46.8535C81.2729 47.1465 81.2495 47.3867 81.2495 47.5742C81.2495 47.7734 81.3022 47.9023 81.4077 47.9609C81.5132 48.0078 81.6304 48.0312 81.7593 48.0312C81.8999 48.0312 82.0464 48.0078 82.1987 47.9609C82.3628 47.9023 82.5151 47.8379 82.6558 47.7676C82.7964 47.6973 82.9194 47.6328 83.0249 47.5742C83.1421 47.5156 83.23 47.4805 83.2886 47.4688C83.7222 47.3516 84.0679 47.1875 84.3257 46.9766C84.5835 46.7539 84.7944 46.5137 84.9585 46.2559C85.1226 45.9863 85.2515 45.7051 85.3452 45.4121C85.439 45.1191 85.5386 44.8438 85.644 44.5859C85.6675 44.5273 85.7202 44.4805 85.8022 44.4453C85.8843 44.3984 85.9253 44.334 85.9253 44.252C85.9253 44.2285 85.9194 44.2051 85.9077 44.1816C85.9077 44.1465 85.9077 44.1172 85.9077 44.0938C85.9077 43.9648 85.9429 43.7832 86.0132 43.5488C86.0835 43.3027 86.1362 43.0332 86.1714 42.7402ZM101.921 45.377C102.003 45.459 102.044 45.5527 102.044 45.6582C102.044 45.834 101.992 45.9922 101.886 46.1328C101.781 46.2617 101.646 46.3906 101.482 46.5195C101.33 46.6367 101.16 46.7598 100.972 46.8887C100.796 47.0176 100.632 47.1699 100.48 47.3457C100.281 47.5801 100.046 47.8496 99.7769 48.1543C99.519 48.4473 99.314 48.7461 99.1616 49.0508C99.1382 49.1094 99.062 49.2207 98.9331 49.3848C98.8159 49.5488 98.6694 49.7246 98.4937 49.9121C98.3296 50.0996 98.1421 50.2637 97.9312 50.4043C97.7319 50.5449 97.5386 50.6152 97.3511 50.6152C97.2222 50.6152 97.0933 50.5918 96.9644 50.5449C96.8472 50.5098 96.7358 50.457 96.6304 50.3867C96.5249 50.3281 96.437 50.2578 96.3667 50.1758C96.3081 50.1055 96.2788 50.0352 96.2788 49.9648C96.2788 49.8594 96.3198 49.7539 96.4019 49.6484C96.4956 49.543 96.5425 49.3789 96.5425 49.1562C96.5425 49.0977 96.5308 49.0566 96.5073 49.0332C96.4956 49.0098 96.478 48.9805 96.4546 48.9453C96.4429 48.9102 96.4312 48.8633 96.4194 48.8047C96.4077 48.7461 96.4019 48.6523 96.4019 48.5234C96.4019 48.3945 96.4194 48.2598 96.4546 48.1191C96.5015 47.9668 96.5483 47.8145 96.5952 47.6621C96.6538 47.498 96.7007 47.3398 96.7358 47.1875C96.7827 47.0234 96.8062 46.8652 96.8062 46.7129C96.8062 46.6777 96.8003 46.6426 96.7886 46.6074C96.7886 46.5605 96.7886 46.5195 96.7886 46.4844C96.7886 46.4141 96.8062 46.3086 96.8413 46.168C96.8765 46.0273 96.9175 45.875 96.9644 45.7109C97.0112 45.5469 97.0522 45.3711 97.0874 45.1836C97.1226 44.9844 97.1401 44.7969 97.1401 44.6211C97.1401 44.3984 97.1167 44.2109 97.0698 44.0586C96.9409 44.1055 96.8296 44.1758 96.7358 44.2695C96.6421 44.3516 96.5542 44.4512 96.4722 44.5684C96.4019 44.6738 96.3257 44.791 96.2437 44.9199C96.1733 45.0371 96.0972 45.1484 96.0151 45.2539C95.9683 45.3125 95.8862 45.3887 95.769 45.4824C95.6519 45.5762 95.5288 45.6758 95.3999 45.7812C95.2827 45.8867 95.1772 45.9922 95.0835 46.0977C94.9897 46.1914 94.9429 46.2676 94.9429 46.3262C94.9429 46.3496 94.9487 46.3789 94.9604 46.4141C94.9722 46.4492 94.978 46.4785 94.978 46.502C94.978 46.5371 94.9487 46.5898 94.8901 46.6602C94.8315 46.7305 94.7671 46.8066 94.6968 46.8887C94.6382 46.959 94.5796 47.0293 94.521 47.0996C94.4624 47.1582 94.4331 47.1992 94.4331 47.2227C94.4214 47.3516 94.3218 47.4746 94.1343 47.5918C93.9468 47.6973 93.7827 47.832 93.6421 47.9961C93.5366 48.1133 93.4487 48.2363 93.3784 48.3652C93.3081 48.4941 93.2437 48.6113 93.1851 48.7168C93.1265 48.8223 93.0679 48.9102 93.0093 48.9805C92.9507 49.0391 92.8804 49.0684 92.7983 49.0684C92.7749 49.0684 92.7339 49.0625 92.6753 49.0508C92.6284 49.0391 92.5874 49.0332 92.5522 49.0332C92.4702 49.0332 92.4175 49.0859 92.394 49.1914C92.3823 49.2969 92.3647 49.3789 92.3413 49.4375C92.2476 49.5898 92.1362 49.707 92.0073 49.7891C91.8901 49.8594 91.7378 49.9648 91.5503 50.1055C91.4683 50.1641 91.4097 50.2285 91.3745 50.2988C91.3511 50.3809 91.3159 50.4512 91.269 50.5098C91.2222 50.5684 91.146 50.6152 91.0405 50.6504C90.9468 50.6973 90.7944 50.7207 90.5835 50.7207C90.4663 50.7207 90.355 50.709 90.2495 50.6855C90.144 50.6621 90.0913 50.627 90.0913 50.5801C90.0913 50.5566 90.0972 50.5273 90.1089 50.4922C90.1206 50.457 90.1265 50.4277 90.1265 50.4043C90.1265 50.3926 90.103 50.3691 90.0562 50.334C90.0093 50.2988 89.9507 50.2461 89.8804 50.1758C89.8218 50.1172 89.769 50.0352 89.7222 49.9297C89.6753 49.8125 89.6519 49.6719 89.6519 49.5078C89.6519 49.3203 89.6694 49.127 89.7046 48.9277C89.7515 48.7168 89.7983 48.5117 89.8452 48.3125C89.9038 48.1133 89.9565 47.9258 90.0034 47.75C90.0503 47.5625 90.0854 47.3867 90.1089 47.2227C90.1558 46.8359 90.1792 46.4434 90.1792 46.0449C90.1792 45.6465 90.2437 45.2891 90.3726 44.9727C90.4312 44.8555 90.4956 44.6973 90.5659 44.498C90.6362 44.2988 90.7007 44.0645 90.7593 43.7949C90.771 43.7246 90.7886 43.625 90.812 43.4961C90.8354 43.3555 90.8647 43.2031 90.8999 43.0391C90.9351 42.875 90.9702 42.7109 91.0054 42.5469C91.0522 42.3711 91.105 42.2188 91.1636 42.0898C91.187 42.0547 91.228 42.0137 91.2866 41.9668C91.3569 41.9082 91.4038 41.8613 91.4272 41.8262C91.4507 41.7559 91.4624 41.6797 91.4624 41.5977C91.4741 41.5039 91.5034 41.4102 91.5503 41.3164C91.5737 41.2695 91.6206 41.2227 91.6909 41.1758C91.7612 41.1172 91.8022 41.0703 91.814 41.0352C91.8726 40.9297 91.9136 40.8008 91.937 40.6484C91.9604 40.4961 92.0073 40.3672 92.0776 40.2617C92.1245 40.1914 92.2065 40.1328 92.3237 40.0859C92.4409 40.0273 92.5347 39.9512 92.605 39.8574C92.6636 39.7754 92.7046 39.6875 92.728 39.5938C92.7632 39.5 92.8042 39.418 92.8511 39.3477C92.98 39.207 93.0854 39.084 93.1675 38.9785C93.2612 38.8613 93.3433 38.7559 93.4136 38.6621C93.4956 38.5684 93.5718 38.4805 93.6421 38.3984C93.7124 38.3164 93.8003 38.2344 93.9058 38.1523C93.9761 38.1055 94.0581 38.0176 94.1519 37.8887C94.2573 37.7598 94.3511 37.6719 94.4331 37.625C94.5269 37.5898 94.6089 37.5605 94.6792 37.5371C94.7612 37.5137 94.855 37.4609 94.9604 37.3789C94.9839 37.3555 95.0073 37.3086 95.0308 37.2383C95.0542 37.1562 95.0776 37.1094 95.1011 37.0977C95.1831 37.0625 95.2593 37.0332 95.3296 37.0098C95.4116 36.9863 95.5054 36.9277 95.6108 36.834C95.7397 36.7168 95.8394 36.5996 95.9097 36.4824C95.98 36.3652 96.062 36.2656 96.1558 36.1836C96.2495 36.1133 96.355 36.0664 96.4722 36.043C96.5894 36.0195 96.6948 35.9785 96.7886 35.9199C96.9644 35.8262 97.1401 35.7031 97.3159 35.5508C97.5034 35.3867 97.6968 35.2285 97.896 35.0762C98.0952 34.9121 98.3003 34.7773 98.5112 34.6719C98.7339 34.5547 98.9624 34.4961 99.1968 34.4961C99.3491 34.4961 99.5015 34.4844 99.6538 34.4609C99.8179 34.4258 99.9702 34.4082 100.111 34.4082C100.24 34.4082 100.357 34.4316 100.462 34.4785C100.568 34.5254 100.621 34.625 100.621 34.7773C100.621 35.2227 100.568 35.7207 100.462 36.2715C100.357 36.8223 100.24 37.4141 100.111 38.0469C99.9937 38.6797 99.8823 39.3477 99.7769 40.0508C99.6831 40.7539 99.6362 41.4805 99.6362 42.2305C99.6362 42.2539 99.6421 42.2891 99.6538 42.3359C99.6772 42.3828 99.689 42.4531 99.689 42.5469C99.689 42.6172 99.6714 42.7051 99.6362 42.8105C99.6128 42.9043 99.5835 43.0039 99.5483 43.1094C99.5132 43.2031 99.478 43.2969 99.4429 43.3906C99.4194 43.4844 99.4077 43.5664 99.4077 43.6367C99.4077 43.7539 99.4077 43.8711 99.4077 43.9883C99.4194 44.1055 99.4253 44.2109 99.4253 44.3047C99.4253 44.5039 99.4019 44.7266 99.355 44.9727C99.3081 45.2188 99.2495 45.4766 99.1792 45.7461C99.1206 46.0039 99.0679 46.2617 99.021 46.5195C98.9741 46.7773 98.9507 47.0176 98.9507 47.2402C98.9507 47.3574 98.9565 47.4688 98.9683 47.5742C98.98 47.668 99.0034 47.7617 99.0386 47.8555C99.1909 47.7852 99.314 47.6973 99.4077 47.5918C99.5132 47.4863 99.6069 47.3691 99.689 47.2402C99.7827 47.0996 99.8765 46.9531 99.9702 46.8008C100.064 46.6367 100.187 46.4668 100.339 46.291C100.398 46.2207 100.48 46.127 100.585 46.0098C100.691 45.8926 100.802 45.7812 100.919 45.6758C101.037 45.5703 101.16 45.4766 101.289 45.3945C101.417 45.3125 101.541 45.2715 101.658 45.2715C101.74 45.2715 101.828 45.3066 101.921 45.377ZM97.8433 36.3242C97.8081 36.3242 97.7729 36.3242 97.7378 36.3242C97.7026 36.3125 97.6733 36.3066 97.6499 36.3066C97.4741 36.3066 97.3394 36.3594 97.2456 36.4648C97.1636 36.5586 97.0933 36.6055 97.0347 36.6055C97.0112 36.6055 96.9819 36.6055 96.9468 36.6055C96.9116 36.5938 96.8765 36.5879 96.8413 36.5879C96.7827 36.5879 96.7534 36.623 96.7534 36.6934C96.7534 36.752 96.7241 36.7988 96.6655 36.834C96.6187 36.8926 96.5542 36.9219 96.4722 36.9219C96.3901 36.9102 96.3257 36.9277 96.2788 36.9746C96.2202 37.0332 96.1616 37.127 96.103 37.2559C96.0562 37.373 95.98 37.4961 95.8745 37.625C95.7808 37.7305 95.6636 37.8242 95.5229 37.9062C95.394 37.9883 95.2944 38.0703 95.2241 38.1523C95.2007 38.1992 95.1772 38.2695 95.1538 38.3633C95.1421 38.4453 95.1245 38.5098 95.1011 38.5566C95.0073 38.7207 94.8901 38.9199 94.7495 39.1543C94.6206 39.377 94.48 39.6113 94.3276 39.8574C94.1753 40.1035 94.0229 40.3438 93.8706 40.5781C93.73 40.8008 93.6128 41 93.519 41.1758C93.4253 41.3398 93.3608 41.5332 93.3257 41.7559C93.2905 41.9785 93.2612 42.2129 93.2378 42.459C93.2261 42.6934 93.2144 42.9219 93.2026 43.1445C93.1909 43.3555 93.1675 43.5312 93.1323 43.6719C92.9097 44.4453 92.6987 45.2246 92.4995 46.0098C92.312 46.7832 92.2183 47.5332 92.2183 48.2598C92.4644 48.2246 92.6519 48.1309 92.7808 47.9785C92.9214 47.8145 93.0327 47.6328 93.1147 47.4336C93.1968 47.2344 93.2729 47.041 93.3433 46.8535C93.4136 46.666 93.5132 46.5254 93.6421 46.4316C93.7358 46.373 93.8296 46.291 93.9233 46.1855C94.0288 46.0801 94.1167 45.9805 94.187 45.8867C94.2222 45.8398 94.2397 45.7812 94.2397 45.7109C94.2397 45.6289 94.2632 45.5586 94.3101 45.5C94.3804 45.418 94.4624 45.3301 94.5562 45.2363C94.6616 45.1426 94.7671 45.0488 94.8726 44.9551C94.978 44.8613 95.0718 44.7734 95.1538 44.6914C95.2476 44.5977 95.3179 44.5215 95.3647 44.4629C95.4116 44.4043 95.4351 44.3164 95.4351 44.1992C95.4468 44.0703 95.4644 43.9766 95.4878 43.918C95.605 43.6953 95.7339 43.4961 95.8745 43.3203C96.0151 43.1328 96.1499 42.9395 96.2788 42.7402C96.4897 42.4121 96.6655 42.0898 96.8062 41.7734C96.9585 41.457 97.0874 41.1348 97.1929 40.8066C97.2983 40.4785 97.3921 40.1445 97.4741 39.8047C97.5562 39.4531 97.6382 39.0781 97.7202 38.6797C97.7671 38.4453 97.8198 38.1934 97.8784 37.9238C97.9487 37.6543 97.9839 37.3789 97.9839 37.0977C97.9839 36.8047 97.937 36.5469 97.8433 36.3242ZM109.656 45.6406C109.703 45.7461 109.726 45.8574 109.726 45.9746C109.726 46.0918 109.697 46.1973 109.638 46.291C109.591 46.373 109.527 46.4551 109.445 46.5371C109.375 46.6074 109.292 46.6777 109.199 46.748C109.117 46.8066 109.046 46.8711 108.988 46.9414C108.964 46.9883 108.947 47.0586 108.935 47.1523C108.935 47.2344 108.912 47.2988 108.865 47.3457C108.724 47.498 108.548 47.627 108.337 47.7324C108.138 47.8379 107.962 47.9727 107.81 48.1367C107.716 48.2422 107.646 48.3477 107.599 48.4531C107.552 48.5469 107.447 48.6582 107.283 48.7871C107.154 48.8809 107.031 49.0098 106.914 49.1738C106.796 49.3379 106.667 49.502 106.527 49.666C106.386 49.8184 106.222 49.9531 106.035 50.0703C105.847 50.1992 105.625 50.2637 105.367 50.2637C105.308 50.2637 105.255 50.2578 105.208 50.2461C105.162 50.2461 105.109 50.2402 105.05 50.2285C105.05 50.2285 105.009 50.2051 104.927 50.1582C104.845 50.1113 104.751 50.0176 104.646 49.877C104.552 49.7363 104.464 49.5371 104.382 49.2793C104.3 49.0215 104.259 48.6816 104.259 48.2598C104.259 48.1543 104.277 48.043 104.312 47.9258C104.359 47.7969 104.406 47.6738 104.453 47.5566C104.511 47.4395 104.558 47.3223 104.593 47.2051C104.64 47.0762 104.664 46.959 104.664 46.8535C104.664 46.748 104.64 46.6484 104.593 46.5547C104.546 46.4609 104.523 46.3613 104.523 46.2559C104.523 46.1504 104.57 46.0801 104.664 46.0449C104.757 45.998 104.804 45.916 104.804 45.7988C104.804 45.7402 104.798 45.6875 104.787 45.6406C104.787 45.5938 104.787 45.541 104.787 45.4824C104.787 45.3418 104.81 45.248 104.857 45.2012C104.904 45.1426 104.927 45.0664 104.927 44.9727C104.927 44.8906 104.91 44.832 104.875 44.7969C104.851 44.75 104.839 44.6914 104.839 44.6211C104.839 44.5391 104.869 44.4629 104.927 44.3926C104.986 44.3105 105.027 44.1992 105.05 44.0586C105.132 43.7891 105.197 43.4727 105.244 43.1094C105.291 42.7344 105.343 42.3359 105.402 41.9141C105.472 41.4805 105.548 41.0234 105.63 40.543C105.712 40.0508 105.83 39.5586 105.982 39.0664C106.029 38.9023 106.076 38.668 106.123 38.3633C106.181 38.0469 106.216 37.7188 106.228 37.3789C106.169 37.3438 106.128 37.3262 106.105 37.3262C106.011 37.3262 105.941 37.4023 105.894 37.5547C105.859 37.707 105.8 37.8184 105.718 37.8887C105.66 37.9355 105.589 37.959 105.507 37.959C105.437 37.959 105.373 37.9766 105.314 38.0117C105.244 38.0703 105.185 38.1406 105.138 38.2227C105.103 38.293 105.062 38.3633 105.015 38.4336C104.98 38.5039 104.927 38.5742 104.857 38.6445C104.787 38.7148 104.681 38.7676 104.541 38.8027C104.517 38.8145 104.505 38.8438 104.505 38.8906C104.505 38.9258 104.482 38.9434 104.435 38.9434H104.4C104.4 38.9082 104.371 38.8789 104.312 38.8555C104.265 38.8203 104.207 38.7852 104.136 38.75C104.066 38.7148 104.001 38.6738 103.943 38.627C103.896 38.5801 103.873 38.5215 103.873 38.4512C103.873 38.3457 103.896 38.2637 103.943 38.2051C103.99 38.1465 104.054 38.0996 104.136 38.0645C104.218 38.0293 104.3 37.9941 104.382 37.959C104.476 37.9121 104.57 37.8477 104.664 37.7656C104.781 37.6484 104.91 37.5137 105.05 37.3613C105.203 37.209 105.355 37.0566 105.507 36.9043C105.66 36.7402 105.818 36.5879 105.982 36.4473C106.158 36.2949 106.333 36.1602 106.509 36.043C106.544 36.0195 106.55 35.9961 106.527 35.9727C106.515 35.9492 106.55 35.9316 106.632 35.9199C106.667 35.9199 106.714 35.9023 106.773 35.8672C106.843 35.8203 106.908 35.7734 106.966 35.7266C107.037 35.668 107.095 35.6211 107.142 35.5859C107.189 35.5391 107.218 35.5156 107.23 35.5156C107.253 35.5156 107.277 35.5215 107.3 35.5332C107.335 35.5332 107.365 35.5332 107.388 35.5332C107.482 35.5332 107.587 35.5098 107.705 35.4629C107.833 35.4043 108.062 35.375 108.39 35.375C108.519 35.375 108.63 35.416 108.724 35.498C108.83 35.5684 108.882 35.7207 108.882 35.9551C108.882 36.0254 108.853 36.1367 108.794 36.2891C108.736 36.4414 108.671 36.623 108.601 36.834C108.531 37.0449 108.466 37.2793 108.408 37.5371C108.349 37.7949 108.32 38.0645 108.32 38.3457C108.32 38.4629 108.326 38.5859 108.337 38.7148C108.349 38.832 108.355 38.9492 108.355 39.0664C108.355 39.2773 108.314 39.459 108.232 39.6113C108.162 39.752 108.109 39.9219 108.074 40.1211C108.027 40.3672 108.003 40.625 108.003 40.8945C108.003 41.1641 107.986 41.4336 107.951 41.7031C107.857 42.2656 107.746 42.8105 107.617 43.3379C107.488 43.8652 107.376 44.4102 107.283 44.9727C107.248 45.1602 107.189 45.4004 107.107 45.6934C107.037 45.9863 107.001 46.2969 107.001 46.625C107.001 46.9297 107.054 47.2109 107.16 47.4688C107.335 47.457 107.482 47.4043 107.599 47.3105C107.716 47.2168 107.822 47.1113 107.916 46.9941C108.009 46.877 108.097 46.7539 108.179 46.625C108.273 46.4961 108.373 46.3848 108.478 46.291C108.548 46.2324 108.648 46.1914 108.777 46.168C108.917 46.1328 109.035 46.0859 109.128 46.0273C109.222 45.9688 109.287 45.8867 109.322 45.7812C109.357 45.6758 109.433 45.623 109.55 45.623C109.574 45.623 109.591 45.6289 109.603 45.6406C109.615 45.6406 109.632 45.6406 109.656 45.6406ZM110.306 27.9219C110.341 27.9922 110.359 28.0684 110.359 28.1504C110.359 28.291 110.312 28.4434 110.218 28.6074C110.125 28.7715 110.019 28.9297 109.902 29.082C109.796 29.2344 109.691 29.375 109.585 29.5039C109.48 29.6211 109.416 29.7031 109.392 29.75C109.322 29.9023 109.263 30.1074 109.216 30.3652C109.181 30.623 109.105 30.8574 108.988 31.0684C108.941 31.1621 108.9 31.2324 108.865 31.2793C108.83 31.3262 108.789 31.4316 108.742 31.5957C108.695 31.7012 108.636 31.8242 108.566 31.9648C108.496 32.1055 108.419 32.2402 108.337 32.3691C108.255 32.4863 108.173 32.5918 108.091 32.6855C108.009 32.7676 107.933 32.8086 107.863 32.8086C107.558 32.8086 107.347 32.6621 107.23 32.3691C107.125 32.0645 107.072 31.707 107.072 31.2969C107.072 31.1328 107.078 30.9629 107.089 30.7871C107.113 30.6113 107.136 30.4414 107.16 30.2773C107.183 30.1016 107.242 29.9727 107.335 29.8906C107.429 29.8086 107.505 29.6797 107.564 29.5039C107.623 29.3516 107.664 29.2051 107.687 29.0645C107.71 28.9121 107.734 28.7715 107.757 28.6426C107.792 28.5137 107.828 28.4023 107.863 28.3086C107.91 28.2031 107.98 28.1152 108.074 28.0449C108.144 27.998 108.226 27.957 108.32 27.9219C108.425 27.8867 108.531 27.8633 108.636 27.8516C108.753 27.8281 108.865 27.8105 108.97 27.7988C109.087 27.7871 109.181 27.7812 109.251 27.7812C109.251 27.793 109.304 27.7754 109.41 27.7285C109.515 27.6699 109.632 27.6406 109.761 27.6406C109.785 27.6406 109.861 27.6641 109.99 27.7109C110.13 27.7461 110.236 27.8164 110.306 27.9219ZM128.869 19.6074V19.5898C128.669 20.0117 128.505 20.3457 128.376 20.5918C128.259 20.8379 128.148 21.043 128.042 21.207C127.937 21.3594 127.837 21.4941 127.744 21.6113C127.65 21.7285 127.533 21.875 127.392 22.0508C127.322 22.0742 127.199 22.168 127.023 22.332C126.847 22.4961 126.66 22.6777 126.46 22.877C126.261 23.0762 126.074 23.2578 125.898 23.4219C125.722 23.5859 125.599 23.6797 125.529 23.7031C125.494 23.8086 125.417 23.9141 125.3 24.0195C125.195 24.125 125.066 24.2246 124.914 24.3184C124.761 24.4121 124.603 24.5117 124.439 24.6172C124.275 24.7109 124.123 24.8047 123.982 24.8984C123.748 25.0625 123.548 25.2031 123.384 25.3203C123.232 25.4258 123.08 25.5254 122.927 25.6191C122.775 25.7129 122.611 25.8008 122.435 25.8828C122.259 25.9531 122.037 26.0293 121.767 26.1113C121.275 26.2637 120.724 26.3926 120.115 26.498C119.505 26.6035 118.919 26.6562 118.357 26.6562C117.994 26.6562 117.63 26.6387 117.267 26.6035C116.904 26.5566 116.628 26.4863 116.441 26.3926C116.371 26.4629 116.335 26.5098 116.335 26.5332C116.335 26.5801 116.365 26.6211 116.423 26.6562C116.482 26.6797 116.529 26.7207 116.564 26.7793C116.611 26.8496 116.652 26.9375 116.687 27.043C116.722 27.1484 116.769 27.2363 116.828 27.3066C116.945 27.459 117.08 27.5938 117.232 27.7109C117.396 27.8281 117.525 27.957 117.619 28.0977C117.677 28.168 117.718 28.2734 117.742 28.4141C117.777 28.543 117.824 28.6543 117.882 28.748C117.941 28.8535 118.005 28.9473 118.076 29.0293C118.158 29.0996 118.228 29.1816 118.287 29.2754C118.509 29.6738 118.703 30.043 118.867 30.3828C119.031 30.7227 119.23 31.0977 119.464 31.5078C119.511 31.6016 119.576 31.6895 119.658 31.7715C119.74 31.8535 119.804 31.9414 119.851 32.0352C119.886 32.1289 119.904 32.2344 119.904 32.3516C119.916 32.4688 119.945 32.5801 119.992 32.6855C120.132 33.084 120.285 33.5 120.449 33.9336C120.625 34.3555 120.777 34.7715 120.906 35.1816C120.964 35.4043 121.005 35.6445 121.029 35.9023C121.064 36.1602 121.111 36.4004 121.169 36.623C121.275 37.0449 121.375 37.4141 121.468 37.7305C121.562 38.0469 121.609 38.4277 121.609 38.873C121.609 39.0723 121.603 39.2715 121.591 39.4707C121.58 39.6699 121.568 39.8633 121.556 40.0508C121.533 40.2266 121.474 40.4023 121.38 40.5781C121.298 40.7539 121.263 40.9414 121.275 41.1406C121.275 41.2344 121.281 41.3281 121.292 41.4219C121.304 41.5039 121.31 41.5859 121.31 41.668C121.31 41.9141 121.275 42.166 121.205 42.4238C121.134 42.6699 121.052 42.9277 120.958 43.1973C120.865 43.4551 120.765 43.7188 120.66 43.9883C120.554 44.2461 120.46 44.5039 120.378 44.7617C120.332 44.9258 120.255 45.1074 120.15 45.3066C120.056 45.5059 119.957 45.6992 119.851 45.8867C119.746 46.0742 119.652 46.2441 119.57 46.3965C119.5 46.5488 119.464 46.6602 119.464 46.7305C119.464 46.7891 119.435 46.8359 119.376 46.8711C119.33 46.8945 119.265 46.918 119.183 46.9414C119.113 46.9648 119.037 46.9941 118.955 47.0293C118.884 47.0527 118.832 47.0879 118.796 47.1348C118.679 47.2988 118.591 47.5039 118.533 47.75C118.486 47.9844 118.404 48.2129 118.287 48.4355C118.275 48.4473 118.234 48.4941 118.164 48.5762C118.093 48.6465 118.017 48.7344 117.935 48.8398C117.853 48.9336 117.777 49.0273 117.707 49.1211C117.648 49.2148 117.619 49.291 117.619 49.3496C117.619 49.4082 117.589 49.4551 117.531 49.4902C117.472 49.5137 117.396 49.543 117.302 49.5781C117.22 49.6133 117.121 49.6543 117.003 49.7012C116.898 49.748 116.798 49.8125 116.705 49.8945C116.658 49.9297 116.617 49.9824 116.582 50.0527C116.546 50.1348 116.5 50.2109 116.441 50.2812C116.394 50.3516 116.335 50.416 116.265 50.4746C116.195 50.5332 116.107 50.5625 116.001 50.5625C115.943 50.5625 115.873 50.5566 115.791 50.5449C115.72 50.5332 115.656 50.5273 115.597 50.5273C115.503 50.5273 115.427 50.5742 115.369 50.668C115.31 50.7617 115.234 50.8086 115.14 50.8086C115.035 50.8086 114.958 50.791 114.912 50.7559C114.876 50.7324 114.841 50.6973 114.806 50.6504C114.783 50.6152 114.759 50.5742 114.736 50.5273C114.712 50.4805 114.666 50.4395 114.595 50.4043C114.466 50.3457 114.314 50.3164 114.138 50.3164C113.962 50.3164 113.851 50.3047 113.804 50.2812C113.734 50.2227 113.646 50.082 113.541 49.8594C113.447 49.6367 113.324 49.4258 113.171 49.2266C113.078 49.1211 112.99 49.0332 112.908 48.9629C112.837 48.8926 112.767 48.8281 112.697 48.7695C112.626 48.6992 112.562 48.623 112.503 48.541C112.457 48.4473 112.416 48.3242 112.38 48.1719C112.357 48.0781 112.31 48.0137 112.24 47.9785C112.181 47.9434 112.14 47.8789 112.117 47.7852C112.035 47.5625 111.982 47.3691 111.958 47.2051C111.935 47.041 111.894 46.8359 111.835 46.5898C111.835 46.543 111.818 46.4727 111.783 46.3789C111.759 46.2734 111.73 46.168 111.695 46.0625C111.671 45.9453 111.648 45.834 111.625 45.7285C111.601 45.6113 111.589 45.5176 111.589 45.4473C111.589 45.1191 111.607 44.791 111.642 44.4629C111.689 44.1348 111.712 43.8301 111.712 43.5488C111.712 43.3965 111.718 43.25 111.73 43.1094C111.742 42.9688 111.777 42.8164 111.835 42.6523C111.859 42.6172 111.906 42.5527 111.976 42.459C112.046 42.3652 112.093 42.3008 112.117 42.2656C112.199 41.9727 112.287 41.7031 112.38 41.457C112.474 41.1992 112.585 40.9355 112.714 40.666C112.843 40.3848 112.996 40.0742 113.171 39.7344C113.347 39.3828 113.558 38.9609 113.804 38.4688C113.828 38.4219 113.845 38.3574 113.857 38.2754C113.88 38.1816 113.91 38.1172 113.945 38.082C113.957 38.0703 113.986 38.0527 114.033 38.0293C114.091 38.0059 114.15 37.9824 114.208 37.959C114.279 37.9238 114.337 37.8945 114.384 37.8711C114.443 37.8359 114.472 37.8008 114.472 37.7656C114.472 37.7422 114.466 37.7129 114.455 37.6777C114.455 37.6426 114.455 37.6133 114.455 37.5898C114.455 37.5898 114.507 37.5312 114.613 37.4141C114.718 37.2969 114.841 37.1621 114.982 37.0098C115.123 36.8457 115.263 36.6875 115.404 36.5352C115.556 36.3828 115.679 36.2832 115.773 36.2363C115.867 36.1895 115.96 36.1719 116.054 36.1836C116.148 36.1836 116.236 36.1602 116.318 36.1133C116.423 36.0312 116.517 35.9141 116.599 35.7617C116.681 35.6094 116.757 35.5039 116.828 35.4453C116.933 35.3516 117.062 35.252 117.214 35.1465C117.367 35.041 117.507 34.9355 117.636 34.8301C117.777 34.7246 117.894 34.6309 117.988 34.5488C118.093 34.4551 118.146 34.3789 118.146 34.3203C118.146 34.168 118.093 33.9863 117.988 33.7754C117.882 33.5645 117.759 33.3594 117.619 33.1602C117.49 32.9609 117.373 32.7852 117.267 32.6328C117.162 32.4688 117.109 32.3574 117.109 32.2988C117.097 32.2168 117.056 32.1289 116.986 32.0352C116.916 31.9414 116.839 31.8477 116.757 31.7539C116.675 31.6484 116.599 31.5547 116.529 31.4727C116.47 31.3906 116.441 31.3145 116.441 31.2441C116.441 31.1738 116.406 31.0918 116.335 30.998C116.265 30.8926 116.189 30.7871 116.107 30.6816C116.025 30.5762 115.949 30.4766 115.878 30.3828C115.808 30.2891 115.773 30.2129 115.773 30.1543C115.773 29.9199 115.638 29.6504 115.369 29.3457C115.111 29.0293 114.812 28.6602 114.472 28.2383C114.46 28.2266 114.455 28.209 114.455 28.1855C114.455 28.1621 114.455 28.1328 114.455 28.0977C114.466 28.0625 114.472 28.0332 114.472 28.0098C114.472 27.9512 114.402 27.8574 114.261 27.7285C114.132 27.5996 113.986 27.459 113.822 27.3066C113.658 27.1543 113.505 27.0078 113.365 26.8672C113.236 26.7148 113.171 26.5977 113.171 26.5156C113.16 26.4102 113.06 26.2812 112.873 26.1289C112.697 25.9766 112.503 25.8184 112.292 25.6543C112.082 25.4785 111.888 25.3086 111.712 25.1445C111.537 24.9688 111.449 24.8164 111.449 24.6875C111.484 24.4648 111.548 24.3359 111.642 24.3008C111.748 24.2656 111.906 24.2188 112.117 24.1602C112.187 24.1484 112.281 24.1133 112.398 24.0547C112.515 23.9961 112.638 23.9375 112.767 23.8789C112.896 23.8086 113.031 23.75 113.171 23.7031C113.312 23.6562 113.441 23.6328 113.558 23.6328C113.757 23.6328 113.974 23.6738 114.208 23.7559C114.455 23.8262 114.671 23.9141 114.859 24.0195C114.894 24.043 114.941 24.0957 115 24.1777C115.058 24.248 115.105 24.2891 115.14 24.3008C115.304 24.3594 115.492 24.3828 115.703 24.3711C115.914 24.3477 116.119 24.3652 116.318 24.4238C116.4 24.4473 116.47 24.5 116.529 24.582C116.587 24.6641 116.664 24.7051 116.757 24.7051C116.781 24.7051 116.804 24.7051 116.828 24.7051C116.863 24.6934 116.892 24.6875 116.916 24.6875C116.962 24.6875 117.074 24.7051 117.25 24.7402C117.425 24.7637 117.63 24.793 117.865 24.8281C118.111 24.8633 118.363 24.8984 118.621 24.9336C118.89 24.957 119.13 24.9688 119.341 24.9688C119.634 24.9688 119.98 24.9395 120.378 24.8809C120.777 24.8223 121.175 24.7461 121.574 24.6523C121.972 24.5469 122.341 24.4238 122.681 24.2832C123.033 24.1426 123.302 23.9902 123.49 23.8262C123.583 23.7441 123.666 23.6504 123.736 23.5449C123.806 23.4395 123.894 23.3398 124 23.2461C124.164 23.0938 124.339 22.9707 124.527 22.877C124.726 22.7715 124.925 22.6309 125.125 22.4551C125.429 22.1855 125.775 21.8691 126.162 21.5059C126.56 21.1309 126.906 20.7676 127.199 20.416C127.269 20.334 127.363 20.2168 127.48 20.0645C127.597 19.9004 127.714 19.7188 127.832 19.5195C127.949 19.3086 128.06 19.0918 128.166 18.8691C128.271 18.6348 128.353 18.4121 128.412 18.2012C128.435 17.9668 128.488 17.7852 128.57 17.6562C128.664 17.5156 128.757 17.4453 128.851 17.4453C129.039 17.4453 129.132 17.6504 129.132 18.0605C129.132 18.0605 129.121 18.1426 129.097 18.3066C129.074 18.459 129.044 18.6348 129.009 18.834C128.986 19.0215 128.957 19.1973 128.921 19.3613C128.898 19.5254 128.88 19.6074 128.869 19.6074ZM119.587 39.2598C119.587 39.1543 119.576 39.0781 119.552 39.0312C119.541 38.9727 119.517 38.9199 119.482 38.873C119.458 38.8145 119.429 38.7441 119.394 38.6621C119.371 38.5801 119.347 38.4688 119.324 38.3281C119.277 38.0938 119.259 37.8594 119.271 37.625C119.283 37.3789 119.259 37.1328 119.201 36.8867C119.119 36.5703 119.025 36.2949 118.919 36.0605C118.814 35.8145 118.75 35.6914 118.726 35.6914C118.562 35.6914 118.433 35.7324 118.339 35.8145C118.246 35.8965 118.181 35.9492 118.146 35.9727C118.041 36.0312 117.912 36.084 117.759 36.1309C117.619 36.1777 117.484 36.2539 117.355 36.3594C117.214 36.4883 117.033 36.6758 116.81 36.9219C116.587 37.1562 116.371 37.4023 116.16 37.6602C115.949 37.9062 115.767 38.1289 115.615 38.3281C115.462 38.5156 115.38 38.6152 115.369 38.627C115.193 39.084 115.07 39.4121 115 39.6113C114.941 39.8105 114.9 39.9629 114.876 40.0684C114.853 40.1738 114.835 40.2734 114.824 40.3672C114.824 40.4492 114.794 40.6016 114.736 40.8242C114.712 40.918 114.66 41.0117 114.578 41.1055C114.496 41.1875 114.455 41.293 114.455 41.4219C114.455 41.5039 114.46 41.5801 114.472 41.6504C114.484 41.7207 114.49 41.791 114.49 41.8613C114.49 41.9785 114.466 42.0898 114.419 42.1953C114.384 42.2891 114.343 42.3828 114.296 42.4766C114.25 42.5703 114.203 42.6641 114.156 42.7578C114.121 42.8516 114.103 42.9512 114.103 43.0566C114.103 43.2207 114.115 43.4316 114.138 43.6895C114.173 43.9473 114.208 44.2168 114.244 44.498C114.279 44.7676 114.314 45.0254 114.349 45.2715C114.396 45.5176 114.437 45.6992 114.472 45.8164C114.472 45.8516 114.466 45.8867 114.455 45.9219C114.455 45.9453 114.455 45.9746 114.455 46.0098C114.455 46.0566 114.49 46.127 114.56 46.2207C114.642 46.3027 114.701 46.3848 114.736 46.4668C114.841 46.7715 114.97 47.0527 115.123 47.3105C115.275 47.5566 115.427 47.7734 115.58 47.9609C115.744 48.1484 115.902 48.2949 116.054 48.4004C116.207 48.5059 116.335 48.5586 116.441 48.5586C116.523 48.5586 116.634 48.4824 116.775 48.3301C116.927 48.166 117.085 47.9727 117.25 47.75C117.425 47.5156 117.589 47.2754 117.742 47.0293C117.906 46.7715 118.041 46.543 118.146 46.3438C118.31 46.0508 118.474 45.7168 118.638 45.3418C118.802 44.9668 118.902 44.5977 118.937 44.2344C118.937 44.1641 118.955 44.1113 118.99 44.0762C119.025 44.041 119.054 44.0117 119.078 43.9883C119.136 43.7539 119.166 43.5488 119.166 43.373C119.166 43.1855 119.177 42.9922 119.201 42.793C119.212 42.5352 119.242 42.2539 119.289 41.9492C119.335 41.6328 119.376 41.3164 119.412 41C119.458 40.6836 119.5 40.3789 119.535 40.0859C119.57 39.7812 119.587 39.5059 119.587 39.2598Z" fill="white"/>
<circle cx="30.5" cy="53.5" r="2.5" fill="white"/>
<circle cx="30.5" cy="2.5" r="2.5" fill="white"/>
</svg>
